<?xml version="1.0" encoding="UTF-8"?><svg id="a" xmlns="http://www.w3.org/2000/svg" viewBox="0 0 32 32"><path d="M3.97,2.38c.26,.12,.54,.21,.78,.35,7.4,4.22,14.79,8.45,22.19,12.68,.06,.03,.11,.06,.17,.1,.4,.24,.58,.54,.52,.91-.07,.41-.33,.62-.72,.73-3,.82-6,1.65-9,2.46-.22,.06-.35,.16-.46,.35-1.82,3.23-3.65,6.46-5.47,9.7-.14,.25-.31,.47-.6,.55-.42,.12-.87-.11-1.02-.53-.03-.1-.06-.2-.09-.3C7.92,20.83,5.58,12.28,3.23,3.73c-.14-.5-.09-.9,.31-1.23,.14-.04,.29-.08,.43-.12Z" style="stroke:#fcfcfc; stroke-miterlimit:10; stroke-width:2px;"/></svg>